<svg xmlns="http://www.w3.org/2000/svg" xml:space="preserve" width="2000" height="158" data-id="lg_LxzTe6Ep8ueNPWZwTG" data-version="1" viewBox="0 0 2000 158"><g data-padding="20"><g transform="translate(10 2.816)scale(.96435)"><g transform="translate(476.36 400.37)"><filter id="a" width="140%" height="140%" x="-20%" y="-20%"><feGaussianBlur in="SourceAlpha"/><feOffset result="oBlur"/><feFlood flood-color="#f75cff" flood-opacity="1"/><feComposite in2="oBlur" operator="in"/><feMerge><feMergeNode/><feMergeNode in="SourceGraphic"/></feMerge></filter><g filter="url(#a)"><rect width="408.293" height="158.2" x="422.197" y="-400.47" fill="none" rx="0" ry="0"/><path fill="#00df72" d="M460.684-277.89h-28.28v-98h28.28v34.58h32.76v-34.58h28.28v98h-28.28v-37.66h-32.76Zm101.08 2.1q-7 0-12.81-2.8t-9.31-8.09q-3.5-5.28-3.5-12.77 0-6.51 3.18-11.41 3.19-4.9 9.42-8.02 6.23-3.11 15.43-4.23 9.21-1.12 21.25-.14l.14 16.66q-4.76-1.05-9.1-1.3-4.34-.24-7.7.39t-5.32 2.2q-1.96 1.58-1.96 4.24 0 2.87 2.31 4.27t6.02 1.4q3.36 0 6.05-1.12 2.7-1.12 4.31-3.47 1.61-2.34 1.61-6.05v-14.84q0-3.36-1.33-5.99-1.33-2.62-4.48-4.13-3.15-1.5-8.75-1.5t-11.1 1.68q-5.49 1.68-9.62 4.76l-6.86-18.62q7.28-4.41 15.75-6.62 8.47-2.2 16.73-2.2 10.43 0 18.62 3.32 8.19 3.33 12.92 10.43 4.72 7.11 4.72 18.45v43.4h-23.8v-7.14q-3.36 4.41-9.24 6.82-5.88 2.42-13.58 2.42m83.79 0q-7 0-12.81-2.8t-9.31-8.09q-3.5-5.28-3.5-12.77 0-6.51 3.18-11.41 3.19-4.9 9.42-8.02 6.23-3.11 15.44-4.23 9.2-1.12 21.24-.14l.14 16.66q-4.76-1.05-9.1-1.3-4.34-.24-7.7.39t-5.32 2.2q-1.96 1.58-1.96 4.24 0 2.87 2.31 4.27t6.02 1.4q3.36 0 6.06-1.12 2.69-1.12 4.3-3.47 1.61-2.34 1.61-6.05v-14.84q0-3.36-1.33-5.99-1.33-2.62-4.48-4.13-3.15-1.5-8.75-1.5t-11.09 1.68q-5.5 1.68-9.63 4.76l-6.86-18.62q7.28-4.41 15.75-6.62 8.47-2.2 16.73-2.2 10.43 0 18.62 3.32 8.19 3.33 12.92 10.43 4.72 7.11 4.72 18.45v43.4h-23.8v-7.14q-3.36 4.41-9.24 6.82-5.88 2.42-13.58 2.42m91.21-2.1h-28v-100.8h28Zm38.08 2.1q-7 0-12.81-2.8t-9.31-8.09q-3.5-5.28-3.5-12.77 0-6.51 3.18-11.41 3.19-4.9 9.42-8.02 6.23-3.11 15.43-4.23 9.21-1.12 21.25-.14l.14 16.66q-4.76-1.05-9.1-1.3-4.34-.24-7.7.39t-5.32 2.2q-1.96 1.58-1.96 4.24 0 2.87 2.31 4.27t6.02 1.4q3.36 0 6.05-1.12 2.7-1.12 4.31-3.47 1.61-2.34 1.61-6.05v-14.84q0-3.36-1.33-5.99-1.33-2.62-4.48-4.13-3.15-1.5-8.75-1.5t-11.09 1.68q-5.5 1.68-9.63 4.76l-6.86-18.62q7.28-4.41 15.75-6.62 8.47-2.2 16.73-2.2 10.43 0 18.62 3.32 8.19 3.33 12.91 10.43 4.73 7.11 4.73 18.45v43.4h-23.8v-7.14q-3.36 4.41-9.24 6.82-5.88 2.42-13.58 2.42"/></g></g><rect width="71.912" height="71.912" x="334.662" y="-226.116" fill="#00df72" rx="10" ry="10" transform="translate(180.77 400.02)scale(1.69)"/></g><path fill="transparent" stroke="transparent" d="M719.5 0h561v158h-561z"/></g></svg>