<svg xmlns="http://www.w3.org/2000/svg" xml:space="preserve" width="2000" height="250" data-id="lg_J9smkCpO1OIOmRyz2w" data-version="1" viewBox="0 0 2000 250"><g data-padding="20"><g transform="translate(10 3.743)scale(.97006)"><g transform="translate(482.09 385.3)"><filter id="a" width="140%" height="140%" x="-20%" y="-20%"><feGaussianBlur in="SourceAlpha"/><feOffset result="oBlur"/><feFlood flood-color="#f75cff" flood-opacity="1"/><feComposite in2="oBlur" operator="in"/><feMerge><feMergeNode/><feMergeNode in="SourceGraphic"/></feMerge></filter><g filter="url(#a)"><rect width="480" height="185.32" x="374.088" y="-367.47" fill="none" rx="0" ry="0"/><path fill="#398378" d="M419.258-223.79h-33.12v-114.8h33.12v40.51h38.38v-40.51h33.13v114.8h-33.13v-44.12h-38.38Zm118.41 2.46q-8.2 0-15-3.28-6.81-3.28-10.91-9.47t-4.1-14.97q0-7.62 3.73-13.36t11.03-9.39 18.08-4.96q10.78-1.32 24.89-.17l.16 19.52q-5.57-1.23-10.66-1.52-5.08-.29-9.02.45-3.93.74-6.23 2.59-2.3 1.84-2.3 4.96 0 3.36 2.71 5t7.05 1.64q3.94 0 7.1-1.31 3.15-1.32 5.04-4.06 1.88-2.75 1.88-7.1v-17.38q0-3.94-1.55-7.01-1.56-3.08-5.25-4.84t-10.25-1.76-13 1.97q-6.44 1.96-11.27 5.57l-8.04-21.81q8.53-5.17 18.45-7.75t19.6-2.58q12.22 0 21.81 3.89 9.59 3.9 15.13 12.22 5.53 8.32 5.53 21.61v50.84h-27.88v-8.37q-3.93 5.17-10.82 8t-15.91 2.83m98.15 0q-8.2 0-15.01-3.28t-10.91-9.47-4.1-14.97q0-7.62 3.74-13.36 3.73-5.74 11.02-9.39 7.3-3.65 18.09-4.96 10.78-1.32 24.88-.17l.17 19.52q-5.58-1.23-10.66-1.52-5.09-.29-9.02.45-3.94.74-6.24 2.59-2.29 1.84-2.29 4.96 0 3.36 2.7 5 2.71 1.64 7.06 1.64 3.93 0 7.09-1.31 3.16-1.32 5.04-4.06 1.89-2.75 1.89-7.1v-17.38q0-3.94-1.56-7.01-1.56-3.08-5.25-4.84t-10.25-1.76-12.99 1.97q-6.44 1.96-11.28 5.57l-8.04-21.81q8.53-5.17 18.45-7.75 9.93-2.58 19.6-2.58 12.22 0 21.81 3.89 9.6 3.9 15.13 12.22 5.54 8.32 5.54 21.61v50.84h-27.88v-8.37q-3.94 5.17-10.83 8-6.88 2.83-15.9 2.83m106.85-2.46h-32.8v-118.08h32.8Zm44.61 2.46q-8.2 0-15.01-3.28-6.8-3.28-10.9-9.47t-4.1-14.97q0-7.62 3.73-13.36t11.03-9.39 18.08-4.96q10.78-1.32 24.89-.17l.16 19.52q-5.58-1.23-10.66-1.52t-9.02.45-6.23 2.59q-2.3 1.84-2.3 4.96 0 3.36 2.71 5 2.7 1.64 7.05 1.64 3.94 0 7.09-1.31 3.16-1.32 5.05-4.06 1.88-2.75 1.88-7.1v-17.38q0-3.94-1.56-7.01-1.55-3.08-5.24-4.84t-10.25-1.76-13 1.97q-6.44 1.96-11.28 5.57l-8.03-21.81q8.53-5.17 18.45-7.75t19.6-2.58q12.21 0 21.81 3.89 9.59 3.9 15.13 12.22 5.53 8.32 5.53 21.61v50.84h-27.88v-8.37q-3.93 5.17-10.82 8t-15.91 2.83"/></g></g><path fill="#398378" d="M795.28 125a124.8 124.8 0 0 1 70.325-112.32C813.139-12.73 750.07 1.567 713.692 47.115c-36.38 45.552-36.38 110.218 0 155.77 36.379 45.552 99.447 59.844 151.913 34.435A124.8 124.8 0 0 1 795.28 125"/><rect width="355.355" height="33.9" x="436.41" y="-291.76" fill="none" rx="0" ry="0" transform="translate(562.94 461.01)"/><path fill="#31c48d" d="M1013.778 195.12h-12v-21.41h2.49v19.19h9.51Zm3.29-16.05h2.43v16.05h-2.43Zm1.25-6.01q.6 0 1.03.39t.43 1.21q0 .81-.43 1.2-.43.4-1.03.4-.63 0-1.05-.4-.42-.39-.42-1.2 0-.82.42-1.21t1.05-.39m10.82 29.27q-3.17 0-4.88-1.18t-1.71-3.3q0-1.51.96-2.58t2.65-1.42q-.63-.29-1.07-.88-.45-.59-.45-1.35 0-.88.49-1.54.49-.67 1.5-1.28-1.26-.52-2.04-1.74t-.78-2.85q0-1.73.71-2.95.72-1.22 2.08-1.87 1.37-.64 3.3-.64.42 0 .86.03.43.04.82.11.4.06.69.15h5.51v1.57l-2.96.36q.44.58.73 1.38.3.81.3 1.79 0 2.4-1.63 3.81-1.62 1.42-4.47 1.42-.67 0-1.37-.12-.72.4-1.09.88-.38.48-.38 1.11 0 .47.29.75.28.28.83.4.54.13 1.3.13h2.83q2.62 0 4.02 1.1 1.4 1.09 1.4 3.2 0 2.67-2.17 4.09t-6.27 1.42m.07-1.9q1.99 0 3.3-.41 1.32-.4 1.97-1.15.65-.76.65-1.8 0-.96-.44-1.46-.44-.49-1.29-.65-.85-.17-2.08-.17h-2.78q-1.09 0-1.89.33-.81.34-1.24 1t-.43 1.64q0 1.3 1.1 1.99 1.1.68 3.13.68m.63-12.84q1.74 0 2.62-.87.88-.88.88-2.57 0-1.8-.89-2.7t-2.64-.9q-1.67 0-2.57.93t-.9 2.72q0 1.64.91 2.52.91.87 2.59.87m11.1-15.25h2.44v6.81q0 .59-.03 1.18-.03.6-.11 1.09h.17q.49-.85 1.26-1.42.77-.58 1.75-.88t2.08-.3q1.94 0 3.23.61 1.3.62 1.95 1.91.65 1.28.65 3.34v10.45h-2.4v-10.29q0-2.01-.91-3.01-.92-.99-2.81-.99-1.79 0-2.85.68t-1.52 2-.46 3.22v8.39h-2.44Zm23.59 21.08q.6 0 1.23-.1t1.02-.25v1.89q-.42.19-1.17.33-.76.13-1.48.13-1.27 0-2.31-.45t-1.66-1.52q-.63-1.07-.63-2.95v-9.53h-2.28v-1.18l2.3-.95.97-3.49h1.46v3.72h4.7v1.9h-4.7v9.45q0 1.51.7 2.26.69.74 1.85.74m29.67 1.7h-2.58l-2.64-6.79h-8.58l-2.62 6.79h-2.52l8.38-21.5h2.24Zm-12.97-9h7l-2.5-6.76q-.09-.26-.29-.86-.19-.6-.4-1.25-.2-.64-.34-1.04-.14.6-.31 1.2-.17.59-.33 1.1-.16.5-.28.85Zm22.85-7.34q.49 0 1.02.05.52.05.93.14l-.31 2.25q-.39-.1-.87-.16-.49-.06-.91-.06-.97 0-1.83.39-.85.39-1.5 1.11-.64.73-1.01 1.75-.36 1.02-.36 2.26v8.61h-2.45v-16.05h2.02l.26 2.96h.11q.5-.9 1.2-1.63.7-.74 1.63-1.18t2.07-.44m18.81 8.29q0 1.98-.51 3.53t-1.48 2.62-2.34 1.63q-1.37.57-3.09.57-1.62 0-2.96-.57-1.34-.56-2.31-1.63t-1.51-2.62q-.53-1.55-.53-3.53 0-2.64.89-4.49.89-1.86 2.56-2.83 1.66-.97 3.96-.97 2.2 0 3.84.98 1.65.98 2.57 2.83.91 1.86.91 4.48m-12.21 0q0 1.93.51 3.35t1.58 2.2 2.75.78q1.67 0 2.75-.78t1.59-2.2.51-3.35q0-1.92-.51-3.32t-1.58-2.16-2.77-.76q-2.5 0-3.67 1.65-1.16 1.66-1.16 4.59m27.23-8h2.44v16.05h-1.99l-.35-2.25h-.13q-.5.83-1.29 1.4-.79.58-1.78.86-.99.29-2.1.29-1.91 0-3.2-.62-1.29-.61-1.94-1.9t-.65-3.31v-10.52h2.46v10.34q0 2.01.91 3t2.77.99q1.79 0 2.85-.68 1.06-.67 1.53-1.98t.47-3.22Zm15.19-.29q2.85 0 4.32 1.4 1.46 1.39 1.46 4.49v10.45h-2.4v-10.29q0-2.01-.91-3.01-.92-.99-2.81-.99-2.66 0-3.75 1.51-1.08 1.5-1.08 4.38v8.4h-2.43v-16.05h1.96l.36 2.31h.14q.51-.85 1.3-1.42.79-.58 1.77-.88t2.07-.3m16.52 16.64q-3.05 0-4.83-2.08t-1.78-6.18q0-4.15 1.82-6.27 1.81-2.11 4.83-2.11 1.28 0 2.23.33.95.34 1.64.9.69.57 1.16 1.29h.17q-.06-.46-.12-1.25-.05-.79-.05-1.29v-6.43h2.43v22.79h-1.97l-.36-2.28h-.1q-.46.72-1.15 1.3-.7.59-1.66.93-.96.35-2.26.35m.38-2.02q2.58 0 3.65-1.47 1.06-1.46 1.06-4.35v-.44q0-3.06-1.01-4.7-1.02-1.64-3.7-1.64-2.24 0-3.36 1.72-1.11 1.72-1.11 4.69 0 2.96 1.11 4.57 1.1 1.62 3.36 1.62m25.23.02q.6 0 1.23-.1t1.02-.25v1.89q-.42.19-1.18.33-.75.13-1.47.13-1.27 0-2.31-.45t-1.67-1.52q-.62-1.07-.62-2.95v-9.53h-2.28v-1.18l2.3-.95.96-3.49h1.47v3.72h4.7v1.9h-4.7v9.45q0 1.51.69 2.26.7.74 1.86.74m5.5-21.08h2.44v6.81q0 .59-.03 1.18-.03.6-.11 1.09h.17q.49-.85 1.26-1.42.77-.58 1.75-.88t2.08-.3q1.94 0 3.23.61 1.3.62 1.95 1.91.65 1.28.65 3.34v10.45h-2.4v-10.29q0-2.01-.91-3.01-.92-.99-2.81-.99-1.79 0-2.85.68t-1.52 2-.46 3.22v8.39h-2.44Zm24.59 6.44q2.06 0 3.52.9 1.47.91 2.24 2.55.78 1.63.78 3.81v1.51h-11.09q.04 2.83 1.41 4.31 1.36 1.48 3.83 1.48 1.53 0 2.7-.28t2.43-.82v2.14q-1.22.54-2.41.79t-2.82.25q-2.31 0-4.03-.95-1.73-.94-2.68-2.77t-.95-4.49q0-2.59.87-4.49.87-1.89 2.46-2.92 1.59-1.02 3.74-1.02m-.02 1.99q-1.95 0-3.11 1.27-1.16 1.28-1.38 3.56h8.5q-.02-1.43-.45-2.52-.43-1.1-1.31-1.7-.88-.61-2.25-.61m30.29 14.35h-2.03l-7.2-18.95h-.11q.06.6.1 1.46.04.87.07 1.89.03 1.01.03 2.07v13.53h-2.31v-21.41h3.69l6.78 17.81h.1l6.89-17.81h3.66v21.41h-2.46v-13.71q0-.95.03-1.91t.07-1.81q.05-.86.09-1.49h-.12Zm29.01-8.05q0 1.98-.52 3.53-.51 1.55-1.48 2.62-.96 1.07-2.33 1.63-1.37.57-3.1.57-1.61 0-2.95-.57-1.34-.56-2.32-1.63-.97-1.07-1.5-2.62-.54-1.55-.54-3.53 0-2.64.89-4.49.9-1.86 2.56-2.83t3.96-.97q2.2 0 3.85.98t2.56 2.83q.92 1.86.92 4.48m-12.22 0q0 1.93.51 3.35.52 1.42 1.58 2.2 1.07.78 2.76.78 1.67 0 2.75-.78 1.07-.78 1.58-2.2.52-1.42.52-3.35 0-1.92-.52-3.32-.51-1.4-1.58-2.16t-2.77-.76q-2.5 0-3.67 1.65-1.16 1.66-1.16 4.59m30.27 0q0 1.98-.51 3.53t-1.48 2.62-2.33 1.63q-1.37.57-3.1.57-1.61 0-2.95-.57-1.34-.56-2.32-1.63-.97-1.07-1.51-2.62-.53-1.55-.53-3.53 0-2.64.89-4.49.89-1.86 2.56-2.83 1.66-.97 3.96-.97 2.2 0 3.84.98 1.65.98 2.57 2.83.91 1.86.91 4.48m-12.21 0q0 1.93.51 3.35t1.58 2.2 2.76.78q1.67 0 2.74-.78 1.08-.78 1.59-2.2t.51-3.35q0-1.92-.51-3.32t-1.58-2.16-2.77-.76q-2.5 0-3.67 1.65-1.16 1.66-1.16 4.59m24.02-8.29q2.86 0 4.32 1.4 1.47 1.39 1.47 4.49v10.45h-2.41v-10.29q0-2.01-.91-3.01-.92-.99-2.81-.99-2.66 0-3.75 1.51-1.08 1.5-1.08 4.38v8.4h-2.43v-16.05h1.96l.37 2.31h.13q.51-.85 1.3-1.42.79-.58 1.78-.88.98-.3 2.06-.3"/></g><path fill="transparent" stroke="transparent" d="M666 0h668v250H666z"/></g></svg>